<svg xmlns="http://www.w3.org/2000/svg" width="16.923" height="12.796" viewBox="0 0 16.923 12.796">
  <g id="Group_3276" data-name="Group 3276" transform="translate(-96.4 -99.032)">
    <path id="Path_2881" data-name="Path 2881" d="M161.7,103.814a.8.8,0,0,1,1.125,0l2.859,2.859V99.827a.8.8,0,1,1,1.59,0v6.845l2.859-2.859a.8.8,0,0,1,1.125,1.125l-4.216,4.216a.8.8,0,0,1-1.125,0l-4.216-4.216A.8.8,0,0,1,161.7,103.814Z" transform="translate(-61.622)" fill="#d8222a"/>
    <path id="Path_2882" data-name="Path 2882" d="M112.528,387.191H97.2a.8.8,0,0,1,0-1.591h15.333a.8.8,0,0,1,0,1.591Z" transform="translate(0 -275.362)" fill="#d8222a"/>
  </g>
</svg>
